# Blender v2.79 (sub 0) OBJ File: 'rock_b01-2-2.blend'
# www.blender.org
mtllib rock_01.mtl
o Group1
v -0.952009 -0.300962 -0.046193
v 0.149474 0.283801 -0.622770
v 0.333848 -0.515458 -0.843385
v 0.571032 -0.531010 -0.762214
v 0.351481 -0.639030 -0.708872
v 0.867081 0.040400 0.194497
v 0.849138 0.117862 -0.047382
v -0.328848 0.380658 -0.173805
v -0.320924 -0.619933 -0.661754
v -0.803390 -0.543843 -0.089294
v -0.491878 -0.705857 -0.228486
v -0.607364 -0.675096 0.370901
v 0.667176 -0.723314 0.405294
v 0.591789 -0.803824 0.114321
v -0.569899 -0.588816 0.626151
v -0.280292 -0.701895 0.635714
v -0.293458 -0.500929 0.844219
v -0.754763 -0.122875 0.630458
v -0.401291 -0.044121 0.884068
v -0.860440 0.048311 0.349754
v -0.413294 0.292688 0.521457
v -0.793924 0.210841 0.130582
v -0.620952 0.299893 -0.053119
v -0.368265 0.329229 -0.419213
v 0.191442 0.357280 -0.180835
v -0.598555 0.195440 -0.511744
v -0.844658 0.061595 -0.373612
v -0.751400 -0.234652 0.666232
v -0.519401 -0.256072 0.838271
v -0.264241 -0.157767 0.942683
v -0.345259 0.172544 0.780652
v -0.239864 0.293643 0.632851
v -0.224982 0.370482 0.304104
v -0.901366 0.038625 -0.209728
v -0.984108 -0.254195 0.128686
v -0.036653 -0.311148 0.939819
v 0.023112 0.238600 -0.726369
v -0.513581 0.131006 -0.652348
v -0.795911 -0.431044 0.512642
v 0.239571 -0.460683 0.850983
v 0.199664 -0.136082 0.874380
v 0.387299 0.344269 0.279039
v 0.510002 0.235193 -0.549603
v 0.109705 0.116028 -0.894076
v -0.315801 -0.031001 -0.834462
v -0.820428 -0.443108 -0.319207
v -0.647874 -0.356969 -0.675297
v -0.486561 -0.384618 -0.796815
v -0.332048 -0.284606 -0.916824
v 0.089498 -0.239078 -0.994337
v 0.629204 -0.018668 -0.767740
v 0.831413 0.100518 -0.299007
v 0.673170 0.236095 -0.263068
v 0.509173 0.304864 0.330368
v 0.913384 -0.015948 -0.200406
v 0.928917 -0.189675 -0.510809
v 0.854259 -0.164463 -0.661752
v 0.487983 -0.272765 -0.862484
v -0.265975 -0.768275 -0.190879
v 0.054260 -0.828062 -0.023927
v -0.255103 -0.803642 0.335540
v 0.093518 -0.852496 0.361218
v -0.089759 -0.815690 0.487685
v 0.266557 -0.731118 0.637048
v 0.507182 -0.669302 0.598145
v 0.522348 -0.239799 0.774324
v 0.519867 0.003950 0.728484
v 0.057554 0.247518 0.709916
v 0.588454 0.091666 0.628350
v 0.919916 -0.329999 0.299730
v 0.881476 -0.296451 -0.589612
v -0.168309 -0.557415 -0.771445
v 0.795064 -0.482077 0.484168
v 0.665195 -0.266763 0.667332
v 0.977503 -0.385721 0.045662
v 0.970388 -0.416107 -0.252535
v 0.628959 -0.713282 -0.483287
v 0.558048 -0.773016 -0.321193
v 0.777645 -0.708448 -0.059023
vt 0.292138 0.816058
vt 0.439455 0.775754
vt 0.364290 0.925540
vt 1.070885 0.714147
vt 1.126453 0.545080
vt 1.198258 0.707228
vt 0.215598 1.242751
vt -0.035946 0.738802
vt 0.211844 0.939596
vt 0.204577 0.591852
vt 0.167619 0.594164
vt 0.216474 0.462310
vt 0.288521 0.480511
vt 0.287387 0.651783
vt 0.354275 0.657514
vt 0.334750 0.526463
vt 0.413622 0.514315
vt 0.421187 0.657794
vt 0.258673 0.753489
vt 0.191176 0.419536
vt 0.153952 0.500346
vt 0.340307 0.467547
vt 0.507340 0.370763
vt 0.582098 0.491510
vt 0.489219 0.604154
vt 0.114666 0.663458
vt 0.020429 0.579370
vt 0.356287 0.378111
vt 0.541734 0.653302
vt 0.683690 0.584641
vt 0.677248 0.637451
vt 0.383671 0.754336
vt -0.420790 0.600016
vt -0.325694 0.266581
vt -0.106139 0.450558
vt 0.042564 0.418381
vt 0.160221 0.174894
vt 0.163983 0.336058
vt 0.325260 0.162168
vt 0.749777 0.661549
vt 0.570959 0.759325
vt 0.535658 0.924447
vt 0.715660 0.871508
vt 0.744258 0.479025
vt 0.863540 0.497036
vt 0.769743 0.351112
vt 0.697924 0.377371
vt 0.512749 0.317407
vt 0.679040 0.278452
vt 0.902092 0.309488
vt 0.919888 0.399428
vt 0.727487 1.172721
vt 0.640228 0.943252
vt 0.146194 1.581661
vt 0.397578 -0.271330
vt -0.001509 0.016514
vt -0.527549 -0.104251
vt 0.237832 -0.086314
vt 0.266414 0.281212
vt 0.389137 0.233226
vt 0.762238 0.051760
vt 0.765265 0.271297
vt 0.613212 0.220700
vt 0.967842 0.364489
vt 0.959508 0.580614
vt 0.840669 1.033797
vt 0.858495 0.746207
vt 0.474161 -0.034810
vt 0.396242 0.105771
vt 0.609004 0.044038
vt 0.920753 0.146025
vt 1.328570 0.280785
vt 1.840936 -0.095540
vt 0.631539 -0.607703
vt 1.025824 -0.214763
vt -1.571791 -0.045498
vt 0.517174 0.736246
vt 0.663418 0.780514
vt 0.441557 0.243725
vt 1.311820 2.219018
vn -0.9497 -0.2514 -0.1864
vn -0.8107 0.4010 -0.4265
vn -0.7931 -0.4770 -0.3788
vn 0.1330 -0.5314 -0.8366
vn 0.4459 -0.5102 -0.7354
vn 0.0576 -0.8498 -0.5239
vn -0.3942 -0.8958 -0.2051
vn -0.5239 -0.8351 0.1675
vn -0.6965 -0.7116 -0.0921
vn -0.7550 0.3010 0.5826
vn -0.7525 -0.0632 0.6555
vn -0.3632 0.3237 0.8736
vn -0.2737 0.6350 0.7223
vn -0.8196 0.4511 0.3533
vn -0.6741 0.7312 0.1049
vn -0.3724 0.8691 0.3254
vn -0.0794 0.9885 0.1285
vn -0.4182 0.9064 -0.0582
vn -0.9864 -0.1230 0.1090
vn -0.1112 0.1055 0.9882
vn -0.5007 -0.1464 0.8531
vn -0.0952 0.9049 0.4147
vn 0.1736 0.9776 0.1187
vn 0.1160 0.9889 -0.0928
vn -0.1278 0.9891 -0.0734
vn -0.7995 -0.4391 0.4097
vn -0.5036 -0.6579 0.5600
vn 0.1311 0.7599 0.6366
vn -0.2099 0.9261 -0.3136
vn 0.1133 0.9256 -0.3610
vn -0.0716 0.8444 -0.5308
vn -0.9127 0.3657 -0.1823
vn -0.2539 -0.9637 0.0822
vn -0.1180 -0.9341 0.3369
vn -0.2141 -0.8210 0.5292
vn -0.2140 -0.5126 0.8315
vn 0.2467 -0.3696 0.8958
vn 0.0713 -0.1564 0.9851
vn 0.4990 -0.0457 0.8654
vn 0.0487 0.5613 -0.8262
vn -0.4646 0.5426 -0.6998
vn -0.7147 -0.2708 -0.6448
vn -0.3541 -0.1130 -0.9283
vn 0.3732 0.8430 -0.3873
vn 0.4902 0.4460 -0.7488
vn 0.7333 0.6357 -0.2410
vn 0.4564 0.8781 -0.1435
vn 0.4142 0.8749 0.2509
vn 0.7562 0.6531 0.0397
vn 0.9436 0.1677 -0.2854
vn 0.7355 0.1995 -0.6475
vn -0.2845 -0.8156 -0.5038
vn -0.4996 -0.4094 -0.7634
vn -0.1579 -0.9706 -0.1814
vn 0.5450 -0.7601 0.3538
vn 0.1510 -0.7938 0.5891
vn 0.0259 -0.9905 0.1346
vn 0.4192 -0.6108 0.6717
vn 0.2280 0.2232 0.9477
vn 0.4446 0.3579 0.8211
vn 0.9754 -0.1868 0.1167
vn 0.9383 0.3409 -0.0581
vn 0.8420 0.4655 0.2724
vn 0.7974 -0.3121 -0.5163
vn 0.3785 -0.0577 -0.9238
vn -0.1377 -0.6767 -0.7233
vn 0.0214 -0.0805 -0.9965
vn 0.7732 -0.3284 0.5425
vn 0.7052 -0.0266 0.7085
vn 0.9280 -0.0244 0.3718
vn 0.9421 -0.2963 -0.1566
vn 0.4335 -0.8166 -0.3809
vn 0.2180 -0.9581 -0.1856
vn 0.2937 -0.9551 0.0393
vn 0.6544 -0.7553 -0.0341
vn -0.0451 -0.9905 -0.1298
vn -0.4924 0.7435 -0.4524
vn -0.3514 0.3817 -0.8549
vn 0.5886 0.5463 0.5958
usemtl Material.001
s 1
f 1/1/1 27/2/2 46/3/3
f 3/4/4 4/5/5 5/6/6
f 11/7/7 12/8/8 10/9/9
f 18/10/10 28/11/11 19/12/12
f 31/13/13 18/10/10 19/12/12
f 20/14/14 18/10/10 31/13/13
f 22/15/15 20/14/14 21/16/16
f 21/16/16 33/17/17 23/18/18
f 23/18/18 22/15/15 21/16/16
f 20/14/14 35/19/19 18/10/10
f 30/20/20 19/12/12 29/21/21
f 29/21/21 19/12/12 28/11/11
f 21/16/16 20/14/14 31/13/13
f 31/13/13 32/22/22 21/16/16
f 42/23/23 25/24/24 8/25/25
f 35/19/19 39/26/26 28/11/11
f 15/27/27 28/11/11 39/26/26
f 29/21/21 28/11/11 15/27/27
f 32/22/22 31/13/13 68/28/28
f 24/29/29 2/30/30 37/31/31
f 1/1/1 35/19/19 34/32/32
f 39/26/26 12/8/8 15/27/27
f 12/8/8 61/33/33 63/34/34
f 63/34/34 16/35/35 12/8/8
f 17/36/36 40/37/37 36/38/38
f 40/37/37 66/39/39 36/38/38
f 44/40/40 37/31/31 2/30/30
f 38/41/41 37/31/31 44/40/40
f 27/2/2 38/41/41 47/42/42
f 47/42/42 38/41/41 49/43/43
f 43/44/44 51/45/45 44/40/40
f 43/44/44 52/46/46 51/45/45
f 53/47/47 52/46/46 43/44/44
f 42/23/23 54/48/48 53/47/47
f 7/49/49 53/47/47 54/48/48
f 52/46/46 53/47/47 7/49/49
f 52/46/46 56/50/50 57/51/51
f 9/52/52 47/42/42 48/53/53
f 9/52/52 46/3/3 47/42/42
f 61/33/33 11/7/7 59/54/54
f 13/55/55 64/56/56 62/57/57
f 40/37/37 65/58/58 66/39/39
f 68/28/28 41/59/59 67/60/60
f 54/48/48 42/23/23 68/28/28
f 75/61/61 55/62/62 6/63/63
f 55/62/62 52/46/46 7/49/49
f 56/50/50 71/64/64 57/51/51
f 57/51/51 4/5/5 58/65/65
f 3/4/4 72/66/66 50/67/67
f 72/66/66 9/52/52 49/43/43
f 59/54/54 11/7/7 9/52/52
f 65/58/58 13/55/55 73/68/68
f 6/63/63 74/69/69 70/70/70
f 70/70/70 75/61/61 6/63/63
f 56/50/50 55/62/62 76/71/71
f 71/64/64 56/50/50 76/71/71
f 76/71/71 77/72/72 71/64/64
f 3/4/4 5/6/6 72/66/66
f 9/52/52 72/66/66 5/6/6
f 9/52/52 5/6/6 59/54/54
f 59/54/54 5/6/6 78/73/73
f 78/73/73 77/72/72 14/74/74
f 73/68/68 70/70/70 74/69/69
f 77/72/72 5/6/6 4/5/5
f 79/75/75 14/74/74 77/72/72
f 14/74/74 60/76/76 78/73/73
f 16/35/35 63/34/34 64/56/56
f 62/57/57 64/56/56 63/34/34
f 62/57/57 14/74/74 13/55/55
f 10/9/9 12/8/8 39/26/26
f 15/27/27 16/35/35 17/36/36
f 33/17/17 8/25/25 23/18/18
f 24/29/29 23/18/18 8/25/25
f 24/29/29 26/77/77 23/18/18
f 26/77/77 27/2/2 23/18/18
f 23/18/18 27/2/2 22/15/15
f 18/10/10 35/19/19 28/11/11
f 19/12/12 30/20/20 31/13/13
f 21/16/16 32/22/22 33/17/17
f 33/17/17 42/23/23 8/25/25
f 20/14/14 22/15/15 34/32/32 35/19/19
f 24/29/29 37/31/31 38/41/41
f 24/29/29 38/41/41 26/77/77
f 34/32/32 22/15/15 27/2/2
f 42/23/23 33/17/17 32/22/22 68/28/28
f 29/21/21 15/27/27 17/36/36
f 17/36/36 30/20/20 29/21/21
f 30/20/20 68/28/28 31/13/13
f 61/33/33 59/54/54 60/76/76 62/57/57
f 38/41/41 27/2/2 26/77/77
f 34/32/32 27/2/2 1/1/1
f 35/19/19 10/9/9 39/26/26
f 12/8/8 16/35/35 15/27/27
f 36/38/38 30/20/20 17/36/36
f 36/38/38 66/39/39 41/59/59
f 41/59/59 30/20/20 36/38/38
f 41/59/59 68/28/28 30/20/20
f 43/44/44 2/30/30 25/24/24
f 43/44/44 44/40/40 2/30/30
f 38/41/41 44/40/40 45/78/78
f 46/3/3 10/9/9 1/1/1
f 1/1/1 10/9/9 35/19/19
f 10/9/9 46/3/3 11/7/7
f 47/42/42 49/43/43 48/53/53
f 38/41/41 45/78/78 49/43/43
f 45/78/78 44/40/40 50/67/67
f 42/23/23 53/47/47 25/24/24
f 57/51/51 51/45/45 52/46/46
f 51/45/45 57/51/51 58/65/65
f 51/45/45 50/67/67 44/40/40
f 50/67/67 49/43/43 45/78/78
f 49/43/43 50/67/67 72/66/66
f 49/43/43 9/52/52 48/53/53
f 9/52/52 11/7/7 46/3/3
f 69/79/79 67/60/60 66/39/39 74/69/69
f 13/55/55 65/58/58 64/56/56
f 64/56/56 65/58/58 40/37/37
f 64/56/56 40/37/37 17/36/36
f 41/59/59 66/39/39 67/60/60
f 54/48/48 68/28/28 69/79/79
f 69/79/79 6/63/63 54/48/48
f 6/63/63 55/62/62 7/49/49
f 55/62/62 56/50/50 52/46/46
f 58/65/65 50/67/67 51/45/45
f 60/76/76 14/74/74 62/57/57
f 65/58/58 74/69/69 66/39/39
f 50/67/67 58/65/65 4/5/5 3/4/4
f 74/69/69 6/63/63 69/79/79
f 75/61/61 76/71/71 55/62/62
f 71/64/64 77/72/72 4/5/5
f 71/64/64 4/5/5 57/51/51
f 79/75/75 13/55/55 14/74/74
f 13/55/55 79/75/75 75/61/61
f 75/61/61 73/68/68 13/55/55
f 2/30/30 24/29/29 8/25/25 25/24/24
f 73/68/68 75/61/61 70/70/70
f 74/69/69 65/58/58 73/68/68
f 76/71/71 75/61/61 79/75/75
f 77/72/72 78/73/73 5/6/6
f 79/75/75 77/72/72 76/71/71
f 78/73/73 60/80/76 59/54/54
f 67/60/60 69/79/79 68/28/28
f 17/36/36 16/35/35 64/56/56
f 63/34/34 61/33/33 62/57/57
f 12/8/8 11/7/7 61/33/33
f 54/48/48 6/63/63 7/49/49
f 53/47/47 43/44/44 25/24/24
f 47/42/42 46/3/3 27/2/2
