# Blender v2.77 (sub 0) OBJ File: 'hammer.blend'
# www.blender.org
mtllib hammer_lp.mtl
o Cylinder
v 0.000000 -14.356512 -0.662171
v -0.000000 1.262028 -0.734303
v 0.299182 -14.356512 -0.535708
v 0.331772 1.262028 -0.594064
v 0.484086 -14.356512 -0.204622
v 0.536819 1.262028 -0.226912
v 0.484086 -14.356512 0.204622
v 0.536819 1.262028 0.226912
v 0.299181 -14.356512 0.535708
v 0.331772 1.262028 0.594064
v -0.000000 -14.356512 0.662171
v -0.000000 1.262028 0.734303
v -0.299182 -14.356512 0.535708
v -0.331772 1.262028 0.594064
v -0.484086 -14.356512 0.204622
v -0.536819 1.262028 0.226912
v -0.484086 -14.356512 -0.204622
v -0.536819 1.262028 -0.226912
v -0.299181 -14.356512 -0.535708
v -0.331772 1.262028 -0.594064
v -0.000000 -3.243468 -0.734303
v 0.331772 -3.243468 -0.594064
v 0.536819 -3.243468 -0.226912
v 0.536819 -3.243468 0.226912
v 0.331772 -3.243468 0.594064
v -0.000000 -3.243468 0.734303
v -0.331772 -3.243468 0.594064
v -0.536819 -3.243468 0.226912
v -0.536819 -3.243468 -0.226912
v -0.331772 -3.243468 -0.594064
v 0.299182 -4.202161 -0.535708
v 0.484086 -4.202161 -0.204622
v 0.484086 -4.202161 0.204622
v 0.299181 -4.202161 0.535708
v -0.000000 -4.202161 0.662171
v -0.299182 -4.202161 0.535708
v -0.484086 -4.202161 0.204622
v -0.484086 -4.202161 -0.204622
v -0.299181 -4.202161 -0.535708
v 0.000000 -4.202161 -0.662171
v 0.000000 -14.588511 -0.732583
v 0.330995 -14.588511 -0.592672
v 0.535561 -14.588511 -0.226381
v 0.535561 -14.588511 0.226381
v 0.330995 -14.588511 0.592672
v 0.000000 -14.588511 0.732583
v -0.330995 -14.588511 0.592672
v -0.535561 -14.588511 0.226381
v -0.535561 -14.588511 -0.226381
v -0.330995 -14.588511 -0.592672
v 0.000000 -15.181939 -0.732583
v 0.330995 -15.181939 -0.592672
v 0.535561 -15.181939 -0.226381
v 0.535561 -15.181939 0.226381
v 0.330995 -15.181939 0.592672
v 0.000000 -15.181939 0.732583
v -0.330995 -15.181939 0.592672
v -0.535561 -15.181939 0.226381
v -0.535561 -15.181939 -0.226381
v -0.330995 -15.181939 -0.592672
v 0.000000 -15.330551 -0.564207
v 0.254920 -15.330551 -0.456453
v 0.412469 -15.330551 -0.174349
v 0.412469 -15.330551 0.174350
v 0.254920 -15.330551 0.456453
v 0.000000 -15.330551 0.564207
v -0.254919 -15.330551 0.456453
v -0.412468 -15.330551 0.174350
v -0.412468 -15.330551 -0.174350
v -0.254919 -15.330551 -0.456453
v 0.672315 -1.083792 -0.906253
v 1.083793 -0.672315 -0.906253
v -1.083792 -0.672315 -0.906254
v -0.672314 -1.083792 -0.906254
v 1.083793 0.672315 -0.906253
v 0.672315 1.083793 -0.906253
v -0.672315 1.083793 -0.906253
v -1.083792 0.672315 -0.906254
v 0.672315 -1.083792 -2.661021
v 1.083793 -0.672315 -2.661021
v -1.083792 -0.672315 -2.661022
v -0.672314 -1.083792 -2.661022
v 1.083793 0.672315 -2.661021
v 0.672315 1.083793 -2.661021
v -0.672314 1.083793 -2.661021
v -1.083792 0.672315 -2.661021
v 0.877307 -0.457952 -2.953078
v 0.457953 -0.877306 -2.953078
v -0.457952 -0.877306 -2.953079
v -0.877306 -0.457952 -2.953079
v 0.457953 0.877307 -2.953078
v 0.877307 0.457952 -2.953078
v -0.877306 0.457952 -2.953078
v -0.457952 0.877307 -2.953078
v 1.083792 -0.988660 -0.611062
v 0.988660 -1.083792 -0.611062
v -0.988660 -1.083792 -0.611062
v -1.083792 -0.988660 -0.611062
v 0.988660 1.083793 -0.611061
v 1.083793 0.988660 -0.611061
v -1.083792 0.988660 -0.611062
v -0.988660 1.083793 -0.611062
v 0.672315 -1.083792 0.906253
v 1.083793 -0.672315 0.906253
v -1.083792 -0.672315 0.906254
v -0.672314 -1.083792 0.906254
v 1.083793 0.672315 0.906253
v 0.672315 1.083793 0.906253
v -0.672315 1.083793 0.906253
v -1.083792 0.672315 0.906254
v 0.672315 -1.083792 2.661021
v 1.083793 -0.672315 2.661021
v -1.083792 -0.672315 2.661022
v -0.672314 -1.083792 2.661022
v 1.083793 0.672315 2.661021
v 0.672315 1.083793 2.661021
v -0.672314 1.083793 2.661021
v -1.083792 0.672315 2.661021
v 0.877307 -0.457952 2.953078
v 0.457953 -0.877306 2.953078
v -0.457952 -0.877306 2.953079
v -0.877306 -0.457952 2.953079
v 0.457953 0.877307 2.953078
v 0.877307 0.457952 2.953078
v -0.877306 0.457952 2.953078
v -0.457952 0.877307 2.953078
v 0.988660 -1.083792 0.000000
v 1.083792 -0.988660 0.000000
v -1.083792 -0.988660 0.000000
v -0.988660 -1.083792 0.000000
v 1.083792 0.988660 0.000000
v 0.988660 1.083793 0.000000
v -0.988660 1.083793 0.000000
v -1.083793 0.988660 0.000000
v 1.083792 -0.988660 0.611062
v 0.988660 -1.083792 0.611062
v -0.988660 -1.083792 0.611062
v -1.083792 -0.988660 0.611062
v 0.988660 1.083793 0.611061
v 1.083793 0.988660 0.611061
v -1.083792 0.988660 0.611062
v -0.988660 1.083793 0.611062
v -0.000000 1.262028 -0.000000
v 0.000000 -15.330550 -0.000000
v 0.000000 -14.356512 -0.662171
v 0.299182 -14.356512 -0.535708
v 0.331772 1.262028 -0.594064
v -0.000000 1.262028 -0.734303
v 0.484086 -14.356512 -0.204622
v 0.536819 1.262028 -0.226912
v 0.484086 -14.356512 0.204622
v 0.536819 1.262028 0.226912
v 0.299181 -14.356512 0.535708
v 0.331772 1.262028 0.594064
v -0.000000 -14.356512 0.662171
v -0.000000 1.262028 0.734303
v -0.299182 -14.356512 0.535708
v -0.331772 1.262028 0.594064
v -0.484086 -14.356512 0.204622
v -0.536819 1.262028 0.226912
v -0.484086 -14.356512 -0.204622
v -0.536819 1.262028 -0.226912
v -0.299181 -14.356512 -0.535708
v -0.331772 1.262028 -0.594064
v 1.083793 0.672315 -0.906253
v 1.083793 0.672315 -2.661021
v 1.083793 0.672315 -2.661021
v 1.083793 0.672315 -2.661021
v 0.672315 1.083793 -2.661021
v 0.672315 1.083793 -2.661021
v 0.672315 1.083793 -2.661021
v 0.672315 1.083793 -0.906253
v -0.672314 1.083793 -2.661021
v -0.672314 1.083793 -2.661021
v -0.672314 1.083793 -2.661021
v -1.083792 0.672315 -2.661021
v -1.083792 0.672315 -2.661021
v -1.083792 0.672315 -2.661021
v -1.083792 0.672315 -0.906254
v -0.672315 1.083793 -0.906253
v -1.083792 -0.672315 -0.906254
v -1.083792 -0.672315 -2.661022
v -1.083792 -0.672315 -2.661022
v -1.083792 -0.672315 -2.661022
v -0.672314 -1.083792 -2.661022
v -0.672314 -1.083792 -2.661022
v -0.672314 -1.083792 -2.661022
v -0.672314 -1.083792 -0.906254
v 0.672315 -1.083792 -2.661021
v 0.672315 -1.083792 -2.661021
v 0.672315 -1.083792 -2.661021
v 1.083793 -0.672315 -2.661021
v 1.083793 -0.672315 -2.661021
v 1.083793 -0.672315 -2.661021
v 1.083793 -0.672315 -0.906253
v 0.672315 -1.083792 -0.906253
v 0.457953 -0.877306 -2.953078
v 0.457953 -0.877306 -2.953078
v 0.877307 -0.457952 -2.953078
v 0.877307 -0.457952 -2.953078
v 0.877307 0.457952 -2.953078
v 0.877307 0.457952 -2.953078
v 0.457953 0.877307 -2.953078
v 0.457953 0.877307 -2.953078
v -0.457952 0.877307 -2.953078
v -0.457952 0.877307 -2.953078
v -0.877306 0.457952 -2.953078
v -0.877306 0.457952 -2.953078
v -0.877306 -0.457952 -2.953079
v -0.877306 -0.457952 -2.953079
v -0.457952 -0.877306 -2.953079
v -0.457952 -0.877306 -2.953079
v 0.988660 -1.083792 0.000000
v 0.988660 -1.083792 -0.611062
v 1.083792 -0.988660 -0.611062
v 1.083792 -0.988660 0.000000
v 0.988660 1.083793 -0.611061
v 0.988660 1.083793 0.000000
v 1.083792 0.988660 0.000000
v 1.083793 0.988660 -0.611061
v -1.083792 -0.988660 0.000000
v -1.083792 -0.988660 -0.611062
v -0.988660 -1.083792 -0.611062
v -0.988660 -1.083792 0.000000
v -0.988660 1.083793 0.000000
v -0.988660 1.083793 -0.611062
v -1.083792 0.988660 -0.611062
v -1.083793 0.988660 0.000000
v 1.083793 0.672315 0.906253
v 1.083793 0.672315 2.661021
v 1.083793 0.672315 2.661021
v 1.083793 0.672315 2.661021
v 0.672315 1.083793 2.661021
v 0.672315 1.083793 2.661021
v 0.672315 1.083793 2.661021
v 0.672315 1.083793 0.906253
v -0.672314 1.083793 2.661021
v -0.672314 1.083793 2.661021
v -0.672314 1.083793 2.661021
v -1.083792 0.672315 2.661021
v -1.083792 0.672315 2.661021
v -1.083792 0.672315 2.661021
v -1.083792 0.672315 0.906254
v -0.672315 1.083793 0.906253
v -1.083792 -0.672315 0.906254
v -1.083792 -0.672315 2.661022
v -1.083792 -0.672315 2.661022
v -1.083792 -0.672315 2.661022
v -0.672314 -1.083792 2.661022
v -0.672314 -1.083792 2.661022
v -0.672314 -1.083792 2.661022
v -0.672314 -1.083792 0.906254
v 0.672315 -1.083792 2.661021
v 0.672315 -1.083792 2.661021
v 0.672315 -1.083792 2.661021
v 1.083793 -0.672315 2.661021
v 1.083793 -0.672315 2.661021
v 1.083793 -0.672315 2.661021
v 1.083793 -0.672315 0.906253
v 0.672315 -1.083792 0.906253
v 0.457953 -0.877306 2.953078
v 0.457953 -0.877306 2.953078
v 0.877307 -0.457952 2.953078
v 0.877307 -0.457952 2.953078
v 0.877307 0.457952 2.953078
v 0.877307 0.457952 2.953078
v 0.457953 0.877307 2.953078
v 0.457953 0.877307 2.953078
v -0.457952 0.877307 2.953078
v -0.457952 0.877307 2.953078
v -0.877306 0.457952 2.953078
v -0.877306 0.457952 2.953078
v -0.877306 -0.457952 2.953079
v -0.877306 -0.457952 2.953079
v -0.457952 -0.877306 2.953079
v -0.457952 -0.877306 2.953079
v 0.988660 -1.083792 0.611062
v 1.083792 -0.988660 0.611062
v 0.988660 1.083793 0.611061
v 1.083793 0.988660 0.611061
v -1.083792 -0.988660 0.611062
v -0.988660 -1.083792 0.611062
v -0.988660 1.083793 0.611062
v -1.083792 0.988660 0.611062
vt 0.8973 0.2332
vt 0.8973 0.0141
vt 0.9205 0.0141
vt 0.9205 0.2332
vt 0.9463 0.0141
vt 0.9463 0.2332
vt 0.9724 0.0141
vt 0.9724 0.2332
vt 0.7169 0.2332
vt 0.7169 0.0141
vt 0.7419 0.0141
vt 0.7419 0.2332
vt 0.7667 0.0141
vt 0.7667 0.2332
vt 0.7912 0.0141
vt 0.7912 0.2332
vt 0.8179 0.0141
vt 0.8179 0.2332
vt 0.8463 0.0141
vt 0.8463 0.2332
vt 0.6263 0.7661
vt 0.6088 0.7590
vt 0.6257 0.7277
vt 0.8731 0.0141
vt 0.8731 0.2332
vt 0.7667 0.8903
vt 0.7912 0.8903
vt 0.7912 0.9077
vt 0.7667 0.9077
vt 0.8731 0.2935
vt 0.8973 0.2935
vt 0.8463 0.2935
vt 0.8179 0.2935
vt 0.7912 0.2935
vt 0.7667 0.2935
vt 0.7419 0.2935
vt 0.7169 0.2935
vt 0.9463 0.2935
vt 0.9724 0.2935
vt 0.9205 0.2935
vt 0.8973 0.8903
vt 0.9205 0.8903
vt 0.9463 0.8903
vt 0.9724 0.8903
vt 0.7169 0.8903
vt 0.7419 0.8903
vt 0.7667 0.8903
vt 0.7912 0.8903
vt 0.8179 0.8903
vt 0.8463 0.8903
vt 0.8731 0.8903
vt 0.7419 0.9077
vt 0.7667 0.9594
vt 0.7419 0.9594
vt 0.7419 0.8903
vt 0.7169 0.8903
vt 0.7169 0.9077
vt 0.8973 0.8903
vt 0.9205 0.8903
vt 0.9205 0.9077
vt 0.8973 0.9077
vt 0.9463 0.8903
vt 0.9724 0.8903
vt 0.9724 0.9077
vt 0.9463 0.9077
vt 0.8731 0.8903
vt 0.8731 0.9077
vt 0.8463 0.8903
vt 0.8463 0.9077
vt 0.8179 0.8903
vt 0.8179 0.9077
vt 0.9205 0.9594
vt 0.9463 0.9594
vt 0.9463 0.9799
vt 0.9205 0.9799
vt 0.8731 0.9594
vt 0.8463 0.9594
vt 0.7912 0.9594
vt 0.9724 0.9594
vt 0.8973 0.9594
vt 0.8179 0.9594
vt 0.7169 0.9594
vt 0.8731 0.9799
vt 0.8463 0.9799
vt 0.7912 0.9799
vt 0.7667 0.9799
vt 0.9724 0.9799
vt 0.8973 0.9799
vt 0.8179 0.9799
vt 0.7419 0.9799
vt 0.7169 0.9799
vt 0.0747 0.3441
vt 0.1794 0.3441
vt 0.1794 0.4808
vt 0.0747 0.4808
vt 0.2430 0.6127
vt 0.1630 0.6908
vt 0.1581 0.6549
vt 0.2083 0.6082
vt 0.5234 0.1617
vt 0.5046 0.1866
vt 0.3980 0.1860
vt 0.3780 0.1630
vt 0.2248 0.3441
vt 0.3295 0.3441
vt 0.3295 0.4808
vt 0.2248 0.4808
vt 0.3748 0.3441
vt 0.4796 0.3441
vt 0.4796 0.4808
vt 0.3748 0.4808
vt 0.1100 0.6908
vt 0.0293 0.6139
vt 0.0654 0.6088
vt 0.1135 0.6565
vt 0.0512 0.1178
vt 0.2111 0.1178
vt 0.2112 0.1637
vt 0.0534 0.1697
vt 0.5520 0.1870
vt 0.5046 0.1866
vt 0.5234 0.1617
vt 0.5329 0.1624
vt 0.3685 0.1625
vt 0.3501 0.1878
vt 0.2411 0.1876
vt 0.2209 0.1642
vt 0.0307 0.5599
vt 0.1105 0.4810
vt 0.1154 0.5170
vt 0.0654 0.5642
vt 0.1638 0.4813
vt 0.2445 0.5586
vt 0.2084 0.5637
vt 0.1603 0.5157
vt 0.1154 0.5170
vt 0.1603 0.5157
vt 0.2084 0.5637
vt 0.2083 0.6082
vt 0.1581 0.6549
vt 0.1135 0.6565
vt 0.0654 0.6088
vt 0.0654 0.5642
vt 0.0798 0.1950
vt 0.0293 0.2068
vt 0.0422 0.1713
vt 0.0534 0.1697
vt 0.3980 0.1860
vt 0.3501 0.1878
vt 0.3685 0.1625
vt 0.3780 0.1630
vt 0.2411 0.1876
vt 0.1925 0.1888
vt 0.2112 0.1637
vt 0.2209 0.1642
vt 0.3748 0.3441
vt 0.3748 0.4808
vt 0.3295 0.4808
vt 0.3295 0.3441
vt 0.1794 0.4808
vt 0.1794 0.3441
vt 0.2248 0.3441
vt 0.2248 0.4808
vt 0.0747 0.3441
vt 0.0747 0.4808
vt 0.0293 0.4808
vt 0.0293 0.3441
vt 0.4796 0.4808
vt 0.4796 0.3441
vt 0.5249 0.3441
vt 0.5249 0.4808
vt 0.2430 0.6127
vt 0.2083 0.6082
vt 0.2084 0.5637
vt 0.2445 0.5586
vt 0.1154 0.5170
vt 0.1105 0.4810
vt 0.1638 0.4813
vt 0.1603 0.5157
vt 0.0307 0.5599
vt 0.0654 0.5642
vt 0.0654 0.6088
vt 0.0293 0.6139
vt 0.1581 0.6549
vt 0.1630 0.6908
vt 0.1100 0.6908
vt 0.1135 0.6565
vt 0.5249 0.3441
vt 0.6297 0.3441
vt 0.6297 0.4808
vt 0.5249 0.4808
vt 0.5343 0.1178
vt 0.5242 0.1178
vt 0.3690 0.1178
vt 0.3792 0.1178
vt 0.0512 0.1178
vt 0.0391 0.1178
vt 0.2217 0.1178
vt 0.2111 0.1178
vt 0.5520 0.1870
vt 0.5329 0.1624
vt 0.6892 0.1713
vt 0.6610 0.1947
vt 0.3792 0.1178
vt 0.5242 0.1178
vt 0.2217 0.1178
vt 0.3690 0.1178
vt 0.1925 0.1888
vt 0.0798 0.1950
vt 0.5343 0.1178
vt 0.6910 0.1178
vt 0.0747 0.3438
vt 0.0747 0.2071
vt 0.1794 0.2071
vt 0.1794 0.3438
vt 0.3932 0.4810
vt 0.3720 0.5081
vt 0.3044 0.5100
vt 0.2822 0.4812
vt 0.5234 0.0740
vt 0.3780 0.0727
vt 0.3980 0.0497
vt 0.5046 0.0491
vt 0.2248 0.3438
vt 0.2248 0.2071
vt 0.3295 0.2071
vt 0.3295 0.3438
vt 0.3748 0.3438
vt 0.3748 0.2071
vt 0.4796 0.2071
vt 0.4796 0.3438
vt 0.2447 0.5197
vt 0.2720 0.5413
vt 0.2737 0.6099
vt 0.2447 0.6319
vt 0.0534 0.0660
vt 0.2112 0.0720
vt 0.5520 0.0487
vt 0.5329 0.0733
vt 0.5234 0.0740
vt 0.5046 0.0491
vt 0.3685 0.0732
vt 0.2209 0.0715
vt 0.2411 0.0481
vt 0.3501 0.0479
vt 0.2828 0.6691
vt 0.3043 0.6421
vt 0.3723 0.6411
vt 0.3945 0.6699
vt 0.4313 0.6303
vt 0.4036 0.6088
vt 0.4026 0.5396
vt 0.4316 0.5178
vt 0.3723 0.6411
vt 0.3043 0.6421
vt 0.2737 0.6099
vt 0.2720 0.5413
vt 0.3044 0.5100
vt 0.3720 0.5081
vt 0.4026 0.5396
vt 0.4036 0.6088
vt 0.0798 0.0407
vt 0.0534 0.0660
vt 0.0422 0.0644
vt 0.0293 0.0288
vt 0.3980 0.0497
vt 0.3780 0.0727
vt 0.3685 0.0732
vt 0.3501 0.0479
vt 0.2411 0.0481
vt 0.2209 0.0715
vt 0.2112 0.0720
vt 0.1925 0.0469
vt 0.3748 0.3438
vt 0.3295 0.3438
vt 0.3295 0.2071
vt 0.3748 0.2071
vt 0.1794 0.2071
vt 0.2248 0.2071
vt 0.2248 0.3438
vt 0.1794 0.3438
vt 0.0747 0.3438
vt 0.0293 0.3438
vt 0.0293 0.2071
vt 0.0747 0.2071
vt 0.4796 0.2071
vt 0.5249 0.2071
vt 0.5249 0.3438
vt 0.4796 0.3438
vt 0.3932 0.4810
vt 0.4316 0.5178
vt 0.4026 0.5396
vt 0.3720 0.5081
vt 0.3723 0.6411
vt 0.4036 0.6088
vt 0.4313 0.6303
vt 0.3945 0.6699
vt 0.2828 0.6691
vt 0.2447 0.6319
vt 0.2737 0.6099
vt 0.3043 0.6421
vt 0.3044 0.5100
vt 0.2720 0.5413
vt 0.2447 0.5197
vt 0.2822 0.4812
vt 0.5249 0.3438
vt 0.5249 0.2071
vt 0.6297 0.2071
vt 0.6297 0.3438
vt 0.5520 0.0487
vt 0.6610 0.0409
vt 0.6892 0.0644
vt 0.5329 0.0733
vt 0.0798 0.0407
vt 0.1925 0.0469
vt 0.6464 0.6352
vt 0.6217 0.6461
vt 0.6209 0.5910
vt 0.5966 0.6360
vt 0.5808 0.6086
vt 0.5803 0.5745
vt 0.5953 0.5468
vt 0.6201 0.5359
vt 0.6451 0.5460
vt 0.6609 0.5734
vt 0.6614 0.6074
vt 0.5978 0.7400
vt 0.5975 0.7162
vt 0.6079 0.6968
vt 0.6252 0.6893
vt 0.6427 0.6964
vt 0.6536 0.7154
vt 0.6540 0.7392
vt 0.6435 0.7585
vn 0.0000 -0.0372 -0.9993
vn 0.0000 0.0000 -1.0000
vn 0.6674 0.0000 -0.7447
vn 0.6659 -0.0337 -0.7453
vn 0.9677 0.0000 -0.2519
vn 0.9671 -0.0294 -0.2524
vn 0.9677 0.0000 0.2519
vn 0.9671 -0.0294 0.2524
vn 0.6674 0.0000 0.7447
vn 0.6659 -0.0337 0.7453
vn 0.0000 0.0000 1.0000
vn 0.0000 -0.0372 0.9993
vn -0.6674 0.0000 0.7447
vn -0.6659 -0.0337 0.7453
vn -0.9677 0.0000 0.2519
vn -0.9671 -0.0294 0.2524
vn -0.9677 0.0000 -0.2519
vn -0.9671 -0.0294 -0.2524
vn 0.0000 -0.9042 -0.4271
vn 0.3097 -0.8962 -0.3176
vn 0.0000 -1.0000 0.0000
vn -0.6674 0.0000 -0.7447
vn -0.6659 -0.0337 -0.7453
vn 0.0000 0.2904 0.9569
vn -0.6533 0.2638 0.7096
vn -0.6576 0.1303 0.7419
vn 0.0000 0.1418 0.9899
vn -0.6682 -0.0342 -0.7432
vn 0.0000 -0.0379 -0.9993
vn -0.9675 -0.0296 -0.2511
vn -0.9675 -0.0296 0.2511
vn -0.6682 -0.0342 0.7432
vn 0.0000 -0.0379 0.9993
vn 0.6682 -0.0342 0.7432
vn 0.9675 -0.0296 0.2511
vn 0.9675 -0.0296 -0.2511
vn 0.6682 -0.0342 -0.7432
vn 0.6576 0.1303 0.7419
vn 0.0000 -0.3772 0.9261
vn 0.6146 -0.3633 0.7002
vn 0.6533 0.2638 0.7096
vn 0.9428 0.2316 0.2396
vn 0.9607 0.1147 0.2526
vn 0.0000 0.2904 -0.9569
vn 0.6533 0.2638 -0.7096
vn 0.6576 0.1303 -0.7419
vn 0.0000 0.1418 -0.9899
vn 0.9428 0.2316 -0.2396
vn 0.9607 0.1147 -0.2526
vn -0.6533 0.2638 -0.7096
vn -0.6576 0.1303 -0.7419
vn -0.9428 0.2316 -0.2396
vn -0.9607 0.1147 -0.2526
vn -0.9428 0.2316 0.2396
vn -0.9607 0.1147 0.2526
vn 0.6146 -0.3633 -0.7002
vn 0.9094 -0.3383 -0.2420
vn 0.4494 -0.8867 -0.1082
vn -0.6146 -0.3633 -0.7002
vn -0.9094 -0.3383 -0.2420
vn -0.6146 -0.3633 0.7002
vn 0.9094 -0.3383 0.2420
vn 0.0000 -0.3772 -0.9261
vn -0.9094 -0.3383 0.2420
vn -0.3097 -0.8962 -0.3176
vn -0.4494 -0.8867 -0.1082
vn -0.3097 -0.8962 0.3176
vn 0.0000 -0.9042 0.4271
vn 0.4494 -0.8867 0.1082
vn -0.4494 -0.8867 0.1082
vn 0.3097 -0.8962 0.3176
vn -1.0000 0.0000 0.0000
vn 0.0000 -0.8165 -0.5773
vn 1.0000 0.0000 0.0000
vn 0.0000 1.0000 0.0000
vn -0.8165 0.0000 -0.5773
vn 0.6844 -0.6844 -0.2513
vn 0.6583 -0.6583 -0.3651
vn 0.0000 0.8165 -0.5773
vn 0.8165 0.0000 -0.5773
vn -0.6844 -0.6844 -0.2513
vn -0.6583 -0.6583 -0.3651
vn 0.6844 0.6844 -0.2513
vn 0.6583 0.6583 -0.3651
vn -0.6844 0.6844 -0.2513
vn -0.6583 0.6583 -0.3651
vn 0.7071 0.7071 0.0000
vn -0.7071 0.7071 0.0000
vn -0.7071 -0.7071 0.0000
vn 0.7071 -0.7071 0.0000
vn 0.4953 -0.4953 -0.7137
vn 0.4953 0.4953 -0.7137
vn -0.4953 0.4953 -0.7137
vn -0.4953 -0.4953 -0.7137
vn 0.0000 -0.8165 0.5773
vn -0.8165 0.0000 0.5773
vn 0.6844 -0.6844 0.2513
vn 0.6583 -0.6583 0.3651
vn 0.0000 0.8165 0.5773
vn 0.8165 0.0000 0.5773
vn -0.6844 -0.6844 0.2513
vn -0.6583 -0.6583 0.3651
vn 0.6844 0.6844 0.2513
vn 0.6583 0.6583 0.3651
vn -0.6844 0.6844 0.2513
vn -0.6583 0.6583 0.3651
vn 0.4953 -0.4953 0.7137
vn 0.4953 0.4953 0.7137
vn -0.4953 0.4953 0.7137
vn -0.4953 -0.4953 0.7137
usemtl Hammer
s 1
f 21/1/1 148/2/2 147/3/3 22/4/4
f 22/4/4 147/3/3 150/5/5 23/6/6
f 23/6/6 150/5/5 152/7/7 24/8/8
f 24/9/8 152/10/7 154/11/9 25/12/10
f 25/12/10 154/11/9 156/13/11 26/14/12
f 26/14/12 156/13/11 158/15/13 27/16/14
f 27/16/14 158/15/13 160/17/15 28/18/16
f 28/18/16 160/17/15 162/19/17 29/20/18
f 61/21/19 62/22/20 144/23/21
f 29/20/18 162/19/17 164/24/22 30/25/23
f 30/25/23 164/24/22 148/2/2 21/1/1
f 11/26/24 157/27/25 47/28/26 46/29/27
f 39/30/28 30/25/23 21/1/1 40/31/29
f 38/32/30 29/20/18 30/25/23 39/30/28
f 37/33/31 28/18/16 29/20/18 38/32/30
f 36/34/32 27/16/14 28/18/16 37/33/31
f 35/35/33 26/14/12 27/16/14 36/34/32
f 34/36/34 25/12/10 26/14/12 35/35/33
f 33/37/35 24/9/8 25/12/10 34/36/34
f 32/38/36 23/6/6 24/8/8 33/39/35
f 31/40/37 22/4/4 23/6/6 32/38/36
f 40/31/29 21/1/1 22/4/4 31/40/37
f 145/41/2 40/31/29 31/40/37 146/42/3
f 146/42/3 31/40/37 32/38/36 149/43/5
f 149/43/5 32/38/36 33/39/35 151/44/7
f 151/45/7 33/37/35 34/36/34 153/46/9
f 153/46/9 34/36/34 35/35/33 155/47/11
f 155/47/11 35/35/33 36/34/32 13/48/13
f 13/48/13 36/34/32 37/33/31 159/49/15
f 159/49/15 37/33/31 38/32/30 161/50/17
f 161/50/17 38/32/30 39/30/28 163/51/22
f 163/51/22 39/30/28 40/31/29 145/41/2
f 45/52/38 46/29/27 56/53/39 55/54/40
f 9/55/41 11/26/24 46/29/27 45/52/38
f 7/56/42 9/55/41 45/52/38 44/57/43
f 1/58/44 3/59/45 42/60/46 41/61/47
f 5/62/48 7/63/42 44/64/43 43/65/49
f 3/59/45 5/62/48 43/65/49 42/60/46
f 19/66/50 1/58/44 41/61/47 50/67/51
f 17/68/52 19/66/50 50/67/51 49/69/53
f 15/70/54 17/68/52 49/69/53 48/71/55
f 157/27/25 15/70/54 48/71/55 47/28/26
f 52/72/56 53/73/57 63/74/58 62/75/20
f 42/60/46 43/65/49 53/73/57 52/72/56
f 49/69/53 50/67/51 60/76/59 59/77/60
f 46/29/27 47/28/26 57/78/61 56/53/39
f 43/65/49 44/64/43 54/79/62 53/73/57
f 50/67/51 41/61/47 51/80/63 60/76/59
f 47/28/26 48/71/55 58/81/64 57/78/61
f 44/57/43 45/52/38 55/54/40 54/82/62
f 41/61/47 42/60/46 52/72/56 51/80/63
f 48/71/55 49/69/53 59/77/60 58/81/64
f 59/77/60 60/76/59 70/83/65 69/84/66
f 56/53/39 57/78/61 67/85/67 66/86/68
f 53/73/57 54/79/62 64/87/69 63/74/58
f 60/76/59 51/80/63 61/88/19 70/83/65
f 57/78/61 58/81/64 68/89/70 67/85/67
f 54/82/62 55/54/40 65/90/71 64/91/69
f 51/80/63 52/72/56 62/75/20 61/88/19
f 58/81/64 59/77/60 69/84/66 68/89/70
f 55/54/40 56/53/39 66/86/68 65/90/71
f 73/92/72 78/93/72 177/94/72 182/95/72
f 190/96/73 186/97/73 212/98/73 197/99/73
f 95/100/74 72/101/74 75/102/74 100/103/74
f 77/104/75 76/105/75 170/106/75 174/107/75
f 75/108/74 72/109/74 193/110/74 166/111/74
f 184/112/76 178/113/76 208/114/76 210/115/76
f 129/116/72 134/117/72 101/118/72 222/119/72
f 196/120/77 195/121/77 215/122/78 214/123/78
f 99/124/75 76/125/75 77/126/75 102/127/75
f 175/128/79 171/129/79 204/130/79 205/131/79
f 168/132/80 194/133/80 200/134/80 202/135/80
f 203/136/2 201/137/2 199/138/2 198/139/2 211/140/2 209/141/2 207/142/2 206/143/2
f 181/144/81 188/145/81 223/146/82 98/147/82
f 165/148/83 172/149/83 217/150/84 220/151/84
f 180/152/85 179/153/85 227/154/86 226/155/86
f 165/156/83 167/157/87 169/158/87 172/159/83
f 176/160/88 179/161/85 180/162/85 173/163/88
f 181/164/81 183/165/89 185/166/89 188/167/81
f 192/168/90 195/169/77 196/170/77 189/171/90
f 79/172/91 88/173/91 87/174/91 80/175/91
f 91/176/92 84/177/92 83/178/92 92/179/92
f 85/180/93 94/181/93 93/182/93 86/183/93
f 89/184/94 187/185/94 81/186/94 90/187/94
f 71/188/21 74/189/21 82/190/21 191/191/21
f 213/192/90 214/123/78 215/122/78 216/193/90
f 217/150/84 218/194/87 219/195/87 220/151/84
f 221/196/89 98/147/82 223/146/82 224/197/89
f 225/198/88 226/155/86 227/154/86 228/199/88
f 71/200/21 96/201/21 97/202/21 74/203/21
f 100/103/74 131/204/74 128/205/74 95/100/74
f 102/127/75 133/206/75 132/207/75 99/124/75
f 222/119/72 101/118/72 78/208/72 73/209/72
f 97/202/21 96/201/21 127/210/21 130/211/21
f 105/212/72 246/213/72 241/214/72 110/215/72
f 254/216/95 261/217/95 276/218/95 250/219/95
f 135/220/74 140/221/74 107/222/74 104/223/74
f 109/224/75 238/225/75 234/226/75 108/227/75
f 107/228/74 230/229/74 257/230/74 104/231/74
f 248/232/96 274/233/96 272/234/96 242/235/96
f 129/116/72 281/236/72 141/237/72 134/117/72
f 260/238/97 277/239/98 278/240/98 259/241/97
f 139/242/75 142/243/75 109/244/75 108/245/75
f 239/246/99 269/247/99 268/248/99 235/249/99
f 232/250/100 266/251/100 264/252/100 258/253/100
f 267/254/11 270/255/11 271/256/11 273/257/11 275/258/11 262/259/11 263/260/11 265/261/11
f 245/262/101 138/263/102 282/264/102 252/265/101
f 229/266/103 280/267/104 279/268/104 236/269/103
f 244/270/105 283/271/106 284/272/106 243/273/105
f 229/274/103 236/275/103 233/276/87 231/277/87
f 240/278/88 237/279/88 244/280/105 243/281/105
f 245/282/101 252/283/101 249/284/89 247/285/89
f 256/286/90 253/287/90 260/288/97 259/289/97
f 111/290/107 112/291/107 119/292/107 120/293/107
f 123/294/108 124/295/108 115/296/108 116/297/108
f 117/298/109 118/299/109 125/300/109 126/301/109
f 121/302/110 122/303/110 113/304/110 251/305/110
f 103/306/21 255/307/21 114/308/21 106/309/21
f 213/192/90 216/193/90 278/240/98 277/239/98
f 279/268/104 280/267/104 219/195/87 218/194/87
f 221/196/89 224/197/89 282/264/102 138/263/102
f 225/198/88 228/199/88 284/272/106 283/271/106
f 103/310/21 106/311/21 137/312/21 136/313/21
f 140/221/74 135/220/74 128/205/74 131/204/74
f 142/243/75 139/242/75 132/207/75 133/206/75
f 281/236/72 105/314/72 110/315/72 141/237/72
f 137/312/21 130/211/21 127/210/21 136/313/21
f 4/316/75 2/317/75 143/318/75
f 2/317/75 20/319/75 143/318/75
f 20/319/75 18/320/75 143/318/75
f 18/320/75 16/321/75 143/318/75
f 16/321/75 14/322/75 143/318/75
f 14/322/75 12/323/75 143/318/75
f 12/323/75 10/324/75 143/318/75
f 10/324/75 8/325/75 143/318/75
f 8/325/75 6/326/75 143/318/75
f 6/326/75 4/316/75 143/318/75
f 62/22/20 63/327/58 144/23/21
f 63/327/58 64/328/69 144/23/21
f 64/328/69 65/329/71 144/23/21
f 65/329/71 66/330/68 144/23/21
f 66/330/68 67/331/67 144/23/21
f 67/331/67 68/332/70 144/23/21
f 68/332/70 69/333/66 144/23/21
f 69/333/66 70/334/65 144/23/21
f 70/334/65 61/21/19 144/23/21
